<svg width="32" height="32" viewBox="0 0 32 32" fill="none" xmlns="http://www.w3.org/2000/svg">
<rect x="8" y="4" width="16" height="24" rx="2" stroke="#737373" stroke-width="2"/>
<line x1="12" y1="14" x2="20" y2="14" stroke="#737373" stroke-width="2" stroke-linecap="round"/>
<line x1="14" y1="17" x2="18" y2="17" stroke="#737373" stroke-width="2" stroke-linecap="round"/>
<path d="M3.51821 17.736C3.65375 17.2476 4.34625 17.2476 4.48179 17.736L4.75042 18.704C4.7885 18.8412 4.88328 18.9557 5.01098 19.0187L6.09117 19.5516C6.46287 19.735 6.46287 20.265 6.09117 20.4484L5.01098 20.9813C4.88328 21.0443 4.7885 21.1588 4.75042 21.296L4.48179 22.264C4.34625 22.7524 3.65375 22.7524 3.51821 22.264L3.24958 21.296C3.2115 21.1588 3.11672 21.0443 2.98902 20.9813L1.90883 20.4484C1.53713 20.265 1.53713 19.735 1.90883 19.5516L2.98902 19.0187C3.11672 18.9557 3.2115 18.8412 3.24958 18.704L3.51821 17.736Z" fill="#737373"/>
<path d="M27.5182 8.73603C27.6537 8.24764 28.3463 8.24764 28.4818 8.73603L28.7504 9.70398C28.7885 9.84119 28.8833 9.95566 29.011 10.0187L30.0912 10.5516C30.4629 10.735 30.4629 11.265 30.0912 11.4484L29.011 11.9813C28.8833 12.0443 28.7885 12.1588 28.7504 12.296L28.4818 13.264C28.3463 13.7524 27.6537 13.7524 27.5182 13.264L27.2496 12.296C27.2115 12.1588 27.1167 12.0443 26.989 11.9813L25.9088 11.4484C25.5371 11.265 25.5371 10.735 25.9088 10.5516L26.989 10.0187C27.1167 9.95566 27.2115 9.84119 27.2496 9.70398L27.5182 8.73603Z" fill="#737373"/>
</svg>
