<svg width="33" height="32" viewBox="0 0 33 32" fill="none" xmlns="http://www.w3.org/2000/svg">
<path d="M7 8C7 6.89543 7.89543 6 9 6H26.7282C26.853 6 26.9343 6.13144 26.8784 6.24315C25.6959 8.60814 25.6959 11.3919 26.8784 13.7569C26.9343 13.8686 26.853 14 26.7282 14H9C7.89543 14 7 13.1046 7 12V8Z" fill="#262626" stroke="#E6E6E6" stroke-width="2"/>
<rect x="4" y="6" width="8" height="8" rx="3" fill="#262626" stroke="#E6E6E6" stroke-width="2"/>
<path d="M8 20C8 18.8954 8.89543 18 10 18H28.7302C28.8535 18 28.9332 18.1304 28.877 18.2401C27.6671 20.6007 27.6671 23.3993 28.877 25.7599C28.9332 25.8696 28.8535 26 28.7302 26H10C8.89543 26 8 25.1046 8 24V20Z" fill="#262626" stroke="#E6E6E6" stroke-width="2"/>
<rect x="6" y="18" width="8" height="8" rx="3" fill="#262626" stroke="#E6E6E6" stroke-width="2"/>
</svg>
